<?xml version="1.0" standalone="no"?><!DOCTYPE svg PUBLIC "-//W3C//DTD SVG 1.1//EN" "http://www.w3.org/Graphics/SVG/1.1/DTD/svg11.dtd"><svg t="1540952285858" class="icon" style="" viewBox="0 0 1024 1024" version="1.1" xmlns="http://www.w3.org/2000/svg" p-id="2787" xmlns:xlink="http://www.w3.org/1999/xlink" width="32" height="32"><defs><style type="text/css"></style></defs><path d="M669.47 125.084c6.633 0 18.928 1.089 26.75 8.385 1.782 1.659 7.194 6.7 7.194 19.152 0 13.985-7.59 35.998-28.871 55.845-26.068 24.28-69.048 42.597-99.99 42.597-8.953 0-13.146-1.615-13.854-1.615-0.057 0-0.086 0.013-0.086 0.013-5.723-11.645 6.8-62.23 42.813-95.805 19.181-17.892 43.889-28.572 66.043-28.572m0-59.202c-35.7 0-75.082 15.271-106.42 44.453-53.862 50.22-85.283 142.81-43.377 181.866 13.486 12.566 32.925 18.062 54.882 18.062 46.296 0 103.785-24.423 140.363-58.477 53.833-50.207 63.58-122.581 21.647-161.638-17.536-16.348-41.368-24.28-67.095-24.266z" p-id="2788"></path><path d="M366.925 125.084c22.158 0 46.863 10.68 66.075 28.558 36.295 33.829 48.704 84.885 43.689 95-0.056 0.027-3.908 2.422-14.818 2.422-30.941 0-73.893-18.317-99.933-42.597-21.307-19.848-28.9-41.876-28.9-55.857 0-12.452 5.384-17.496 7.168-19.14 7.849-7.297 20.116-8.386 26.719-8.386m0-59.202c-25.727 0-49.526 7.918-67.094 24.266-41.878 39.057-32.13 111.431 21.733 161.638 36.52 34.054 94.01 58.477 140.306 58.477 21.958 0 41.396-5.497 54.882-18.062 41.935-39.057 10.482-131.645-43.379-181.866-31.337-29.182-70.72-44.453-106.448-44.453zM866.389 542.363V339.275c0-31.916-26.123-58.023-58.027-58.023H547.238v261.11H866.39zM547.238 600.386v261.113h261.123c31.904 0 58.027-26.11 58.027-58.026V600.386h-319.15z" p-id="2789"></path><path d="M489.212 542.363V281.252H228.09c-31.932 0-58.026 26.107-58.026 58.023v203.088h319.148zM170.064 600.386v203.087c0 31.916 26.094 58.026 58.026 58.026h261.122V600.386H170.064z" p-id="2790"></path></svg>