<?xml version="1.0" standalone="no"?><!DOCTYPE svg PUBLIC "-//W3C//DTD SVG 1.1//EN" "http://www.w3.org/Graphics/SVG/1.1/DTD/svg11.dtd"><svg t="1539054652159" class="icon" style="" viewBox="0 0 1024 1024" version="1.1" xmlns="http://www.w3.org/2000/svg" p-id="8160" xmlns:xlink="http://www.w3.org/1999/xlink" width="32" height="32"><defs><style type="text/css"></style></defs><path d="M948.907 866.987h-873.813c-30.146 0-54.613-24.467-54.613-54.613v-163.84c0-15.073 12.234-27.307 27.307-27.307v0c0-1.283-0.574-2.403-0.737-3.632 47.405-11.906 82.657-54.477 82.657-105.595 0-51.118-35.253-93.662-82.657-105.595 0.164-1.229 0.737-2.349 0.737-3.632-15.073 0-27.307-12.234-27.307-27.307v-163.84c0-30.174 24.467-54.613 54.613-54.613h873.813c30.146 0 54.613 24.439 54.613 54.613v163.84c0 15.073-12.206 27.307-27.307 27.307 0 1.283 0.574 2.403 0.737 3.632-47.405 11.933-82.657 54.477-82.657 105.595 0 51.118 35.253 93.69 82.657 105.595-0.164 1.229-0.737 2.349-0.737 3.632 15.073 0 27.307 12.234 27.307 27.307v0 163.84c0 30.146-24.467 54.613-54.613 54.613v0zM948.907 666.31c-63.597-22.5-109.227-83.012-109.227-154.31s45.63-131.809 109.227-154.31v-118.756c0-15.073-12.234-27.307-27.307-27.307h-819.2c-15.073 0-27.307 12.234-27.307 27.307v118.756c63.597 22.528 109.227 83.012 109.227 154.31s-45.63 131.809-109.227 154.31v0 118.756c0 15.101 12.234 27.307 27.307 27.307h819.2c15.073 0 27.307-12.206 27.307-27.307v-118.756zM634.88 621.227h-95.573v68.267c0 7.537-6.116 13.653-13.653 13.653h-27.307c-7.537 0-13.653-6.116-13.653-13.653v-68.267h-95.573c-7.537 0-13.653-6.116-13.653-13.653v-27.307c0-7.537 6.116-13.653 13.653-13.653h95.573v-54.613h-95.573c-7.537 0-13.653-6.116-13.653-13.653v-27.307c0-7.537 6.116-13.653 13.653-13.653h75.258l-84.105-91.996c-4.806-5.243-4.806-13.762 0-19.006l17.367-19.006c4.806-5.243 12.589-5.243 17.394 0l96.256 105.267 97.376-106.524c4.833-5.297 12.67-5.297 17.531 0l17.531 19.142c4.833 5.297 4.833 13.872 0 19.169l-84.978 92.951h76.131c7.537 0 13.653 6.116 13.653 13.653v27.307c0 7.537-6.116 13.653-13.653 13.653h-95.573v54.613h95.573c7.537 0 13.653 6.116 13.653 13.653v27.307c0 7.537-6.116 13.653-13.653 13.653v0zM634.88 621.227z" p-id="8161" fill="#bfcbd9"></path></svg>