<?xml version="1.0" standalone="no"?><!DOCTYPE svg PUBLIC "-//W3C//DTD SVG 1.1//EN" "http://www.w3.org/Graphics/SVG/1.1/DTD/svg11.dtd"><svg t="1539052611662" class="icon" style="" viewBox="0 0 1024 1024" version="1.1" xmlns="http://www.w3.org/2000/svg" p-id="2500" xmlns:xlink="http://www.w3.org/1999/xlink" width="32" height="32"><defs><style type="text/css"></style></defs><path d="M91.272533 493.4144c-15.496533 12.458667-38.1952 10.001067-50.653866-5.495467s-10.001067-38.1952 5.495466-50.653866L441.344 118.664533c17.425067-14.045867 40.1408-21.0432 62.6176-20.992 22.272 0.0512 45.056 7.048533 62.856533 20.906667l410.641067 320.221867c15.650133 12.219733 18.432 34.8672 6.212267 50.517333s-34.8672 18.432-50.517334 6.212267L522.513067 175.3088c-4.829867-3.754667-11.605333-5.6832-18.551467-5.6832-6.7584 0-13.1584 1.723733-17.4592 5.188267L91.272533 493.4144zM810.581333 588.032c0-19.950933 16.1792-36.130133 36.130134-36.130133s36.130133 16.1792 36.130133 36.130133v240.145067c0 26.88-11.093333 51.456-28.893867 69.290666l-0.136533 0.136534c-17.834667 17.800533-42.410667 28.893867-69.290667 28.893866H233.335467c-27.0336 0-51.643733-11.076267-69.444267-28.8768l-2.235733-2.440533c-16.503467-17.646933-26.641067-41.250133-26.641067-67.003733V588.032c0-19.950933 16.1792-36.130133 36.130133-36.130133s36.130133 16.1792 36.130134 36.130133v240.145067c0 6.621867 2.440533 12.6464 6.417066 17.169066l1.262934 1.211734c4.727467 4.727467 11.264 7.68 18.3808 7.68h551.185066c7.202133 0 13.7216-2.901333 18.363734-7.560534l0.136533-0.136533c4.6592-4.642133 7.560533-11.1616 7.560533-18.363733V588.032z" p-id="2501" fill="#bfcbd9"></path></svg>