<?xml version="1.0" encoding="UTF-8"?>
<svg width="14px" height="11px" viewBox="0 0 14 11" version="1.1" xmlns="http://www.w3.org/2000/svg" xmlns:xlink="http://www.w3.org/1999/xlink">
    <!-- Generator: Sketch 49.1 (51147) - http://www.bohemiancoding.com/sketch -->
    <title>Group 5 Copy</title>
    <desc>Created with Sketch.</desc>
    <defs></defs>
    <g id="Page-1" stroke="none" stroke-width="1" fill="none" fill-rule="evenodd" opacity="0.5">
        <g id="2首页－系统首页" transform="translate(-24.000000, -143.000000)" fill="#FFFFFF" fill-rule="nonzero">
            <g id="列表" transform="translate(24.000000, 143.000000)">
                <g id="Shape">
                    <path d="M13.015625,0 L0.984375,0 C0.440234375,0 0,0.461197917 0,1.03125 L0,4.23958333 L0,5.15625 L0,7.10416667 L0,8.02083333 L0,9.96875 C0,10.5388021 0.440234375,11 0.984375,11 L4.375,11 L5.25,11 L8.75,11 L9.625,11 L13.015625,11 C13.5597656,11 14,10.5388021 14,9.96875 L14,8.02083333 L14,7.10416667 L14,5.15625 L14,4.23958333 L14,1.03125 C14,0.461197917 13.5597656,0 13.015625,0 Z M5.25,4.23958333 L5.25,2.29166667 L8.75,2.29166667 L8.75,4.23958333 L5.25,4.23958333 Z M8.75,5.15625 L8.75,7.10416667 L5.25,7.10416667 L5.25,5.15625 L8.75,5.15625 Z M0.984375,2.29166667 L4.375,2.29166667 L4.375,4.23958333 L0.984375,4.23958333 L0.984375,2.29166667 Z M0.984375,5.15625 L4.375,5.15625 L4.375,7.10416667 L0.984375,7.10416667 L0.984375,5.15625 Z M0.984375,9.96875 L0.984375,8.02083333 L4.375,8.02083333 L4.375,9.96875 L0.984375,9.96875 Z M5.25,9.96875 L5.25,8.02083333 L8.75,8.02083333 L8.75,9.96875 L5.25,9.96875 Z M13.015625,9.96875 L9.625,9.96875 L9.625,8.02083333 L13.015625,8.02083333 L13.015625,9.96875 Z M13.015625,7.10416667 L9.625,7.10416667 L9.625,5.15625 L13.015625,5.15625 L13.015625,7.10416667 Z M9.625,4.23958333 L9.625,2.29166667 L13.015625,2.29166667 L13.015625,4.23958333 L9.625,4.23958333 Z"></path>
                </g>
            </g>
        </g>
    </g>
</svg>