<?xml version="1.0" encoding="utf-8"?>
<!-- Svg Vector Icons : http://www.sfont.cn -->
<!DOCTYPE svg PUBLIC "-//W3C//DTD SVG 1.1//EN" "http://www.w3.org/Graphics/SVG/1.1/DTD/svg11.dtd">
<svg version="1.1" xmlns="http://www.w3.org/2000/svg" xmlns:xlink="http://www.w3.org/1999/xlink" x="0px" y="0px" viewBox="0 0 1000 1000" enable-background="new 0 0 1000 1000" xml:space="preserve">
<metadata> Svg Vector Icons : http://www.sfont.cn </metadata>
<g><path d="M538.5,449.4V230.3c-11.2-1.1-22.1-2.3-31.3-3.8v-0.4c-0.8,0-1.2,0-1.6,0h-0.4l0,0h0.4c0.4,0,0.8,0,1.6,0v0.4c-0.4,0-0.4,0-0.8,0c-0.4,0-0.4,0-0.8,0l0,0c0,0-0.4,0.4-0.8,0.4c-12,1.6-26.7,3.4-43.3,5v217.6H10V274.8c0-27.5,22-49.5,49.5-49.5h205.8c-55.3-11.6-96.7-35.2-98.2-78.8C165.5,95,223.5,11.9,308.3,30.9c87.5,19.7,148.6,87.3,195.4,145.3c47.2-59.1,114.1-135.3,205.4-147.3c76.3-9.7,139.3,66.5,131.2,116.7c-6.9,44-49.1,68-102.9,79.6h203.1c27.5,0,49.5,22,49.5,49.5v174.7L538.5,449.4L538.5,449.4z M317.6,76.5c-42.2-16.6-66.9,1.2-84.7,30.6c-9.7,16.6-20.1,38.6-4.7,54.9c40.6,41.8,152,38.7,226.7,30.9C419.7,148.8,376.4,99.7,317.6,76.5z M779.1,161.5c29-37.1-27.9-114.4-89-85.9c-58.4,27.5-100.6,72.3-137,116.4c31.3,2.7,63,3.4,94.4,1.9C685.9,192.4,756.7,189.7,779.1,161.5z M464.6,971.9H96.6c-24.8,0-44.9-20.1-44.9-45.2V484.6h412.9V971.9z M948.2,926.7c0,25.2-20.1,45.2-44.9,45.2H535.4V484.6h412.8V926.7z"/></g>
</svg>