<?xml version="1.0" standalone="no"?><!DOCTYPE svg PUBLIC "-//W3C//DTD SVG 1.1//EN" "http://www.w3.org/Graphics/SVG/1.1/DTD/svg11.dtd"><svg t="1539063237483" class="icon" style="" viewBox="0 0 1024 1024" version="1.1" xmlns="http://www.w3.org/2000/svg" p-id="1939" xmlns:xlink="http://www.w3.org/1999/xlink" width="44" height="44"><defs><style type="text/css"></style></defs><path d="M825.6 678.4c-12.8-12.8-25.6-12.8-32 0-12.8 12.8-12.8 25.6 0 38.4 76.8 76.8 115.2 172.8 115.2 281.6 0 12.8 12.8 25.6 25.6 25.6s25.6-12.8 25.6-25.6c0-121.6-44.8-230.4-134.4-320zM512 0C345.6 0 211.2 134.4 211.2 300.8c0 115.2 70.4 217.6 166.4 268.8-70.4 19.2-134.4 57.6-185.6 115.2-83.2 83.2-128 192-128 313.6 0 12.8 12.8 25.6 25.6 25.6s25.6-12.8 25.6-25.6c0-108.8 38.4-204.8 115.2-281.6C307.2 640 403.2 601.6 512 601.6c166.4 0 300.8-134.4 300.8-300.8S678.4 0 512 0z m0 550.4c-140.8 0-249.6-115.2-249.6-249.6C262.4 160 371.2 51.2 512 51.2s249.6 115.2 249.6 249.6c0 134.4-108.8 249.6-249.6 249.6z" p-id="1940" fill="#bfcbd9"></path></svg>