<?xml version="1.0" standalone="no"?><!DOCTYPE svg PUBLIC "-//W3C//DTD SVG 1.1//EN" "http://www.w3.org/Graphics/SVG/1.1/DTD/svg11.dtd"><svg t="1539331817776" class="icon" style="" viewBox="0 0 1024 1024" version="1.1" xmlns="http://www.w3.org/2000/svg" p-id="4444" xmlns:xlink="http://www.w3.org/1999/xlink" width="32" height="32"><defs><style type="text/css"></style></defs><path d="M377.495273 327.46796h289.232161c19.505131 0 38.282343-8.257939 50.803071-23.227475 29.848566-35.468929 58.15596-79.01996 64.510707-118.030222 12.788364-78.116202-20.686869-117.762586-117.762586-117.762586s-64.232727 63.692283-101.974626 68.949333c-28.126384 3.904646-27.125657-33.202424-71.312808-68.858828-31.753051-25.49398-67.317657 46.540283-109.231838 46.995394-48.899879 0.636121-117.672081-12.88404-117.672081 70.676687 0 33.74804 29.575758 79.384566 61.873131 117.216969 12.974545 15.151838 31.666424 24.040727 51.534869 24.040728z m360.812606 74.393858c-15.424646-17.510141-37.833697-27.30796-61.146505-27.307959H368.510707c-22.318545 0-43.818667 8.984566-59.243313 25.130666C212.283475 501.295838 122.828283 646.366384 122.828283 752.155152 122.828283 845.41802 216.54497 963.180606 332.131556 963.180606h358.363798c115.585293 0 209.303273-116.763152 209.303272-211.025454 0-107.69196-71.945051-248.676848-161.490747-350.293334z m-94.262303 128.378828l-62.055435 112.590869c-5.444525 9.88703 1.722182 22.045737 12.974546 22.045738h17.600646c8.162263 0 14.87903 6.621091 14.879031 14.87903 0 8.166141-6.626263 14.877737-14.879031 14.877737h-44.277656c-8.616081 0-15.515152 6.893899-15.600485 15.515152v7.350303c0 8.162263 6.621091 14.87903 14.87903 14.87903h44.995233c8.166141 0 14.87903 6.621091 14.87903 14.87903a14.829899 14.829899 0 0 1-14.87903 14.877738h-44.995233c-8.166141 0-14.87903 6.622384-14.87903 14.87903v37.83499c0 8.162263-6.626263 14.87903-14.87903 14.87903h-26.949819c-8.16097 0-14.87903-6.626263-14.87903-14.87903v-37.83499c0-8.164848-6.621091-14.87903-14.877737-14.87903h-44.546586c-8.166141 0-14.877737-6.626263-14.877737-14.877738a14.827313 14.827313 0 0 1 14.877737-14.87903h44.454788c8.257939 0 14.87903-6.626263 14.969535-14.87903l0.091798-7.257212c0.090505-8.621253-6.893899-15.698747-15.601778-15.698748h-43.914343c-8.166141 0-14.877737-6.619798-14.877737-14.87903 0-8.164848 6.621091-14.877737 14.877737-14.877738h17.146828c11.344162 0 18.419071-12.157414 12.974546-22.045737l-62.055435-112.590869c-5.444525-9.889616 1.722182-22.045737 12.974546-22.045737h29.575757c5.626828 0 10.798545 3.171556 13.247354 8.16097l50.531555 100.79806c5.443232 10.889051 21.050182 10.889051 26.585213 0l50.530262-100.79806c2.540606-4.989414 7.621818-8.16097 13.247354-8.16097h29.575757c11.434667 0.182303 18.601374 12.247919 13.156849 22.136242z m0 0" p-id="4445"></path></svg>