<?xml version="1.0" standalone="no"?><!DOCTYPE svg PUBLIC "-//W3C//DTD SVG 1.1//EN" "http://www.w3.org/Graphics/SVG/1.1/DTD/svg11.dtd"><svg t="1539331542454" class="icon" style="" viewBox="0 0 1024 1024" version="1.1" xmlns="http://www.w3.org/2000/svg" p-id="2942" data-spm-anchor-id="a313x.7781069.0.i5" xmlns:xlink="http://www.w3.org/1999/xlink" width="32" height="32"><defs><style type="text/css"></style></defs><path d="M619.198531 0.649687H394.777975c-27.565304 0-49.56186 24.502493-49.56186 54.759359 0 30.349678 22.089368 54.944983 49.56186 54.944983h225.812743c26.173117 0 48.169673-24.595305 48.169673-54.944983S646.671023 0.649687 619.198531 0.649687zM862.831269 37.124989H751.085053c1.11375 6.032811 1.763437 12.065621 1.763437 18.191244 0 46.127798-33.41249 91.420285-73.136227 91.420285H336.39893c-41.858425 0-75.363727-45.385299-75.363727-91.420285 0-6.125623 0.649687-12.251246 1.856249-18.191244H149.753049C58.88964 37.124989 36.521834 88.63591 36.521834 162.9787v736.466963c0 79.911538 32.020303 124.554337 120.099338 124.554337h699.341974c88.171848 0 130.958398-35.083114 130.958398-124.554337V163.071513c0-74.34279-40.094988-125.946524-124.090275-125.946524zM748.022242 764.310704H262.05614c-17.912807 0-35.825614-21.996556-35.825614-39.909363s15.128433-33.226865 33.04124-33.226864h484.573914c17.912807 0 33.04124 13.921871 34.433427 33.226864 0 18.00562-12.344059 39.909363-30.256865 39.909363z m1.949062-194.999003H264.005202c-17.912807 0-29.328741-19.212182-29.328741-37.217801 0-17.912807 15.128433-35.918427 33.04124-35.918426h484.573914c17.912807 0 33.04124 16.613432 34.433427 35.918426 0 18.00562-18.840932 37.217801-36.753738 37.217801z m0-200.289314H264.005202c-17.912807 0-29.328741-19.304994-29.328741-37.217801s15.128433-35.918427 33.04124-35.918426h484.573914c17.912807 0 33.04124 16.613432 34.433427 35.918426 0 18.00562-18.840932 37.217801-36.753738 37.217801z m0 0" fill="" p-id="2943"></path></svg>