<?xml version="1.0" standalone="no"?><!DOCTYPE svg PUBLIC "-//W3C//DTD SVG 1.1//EN" "http://www.w3.org/Graphics/SVG/1.1/DTD/svg11.dtd"><svg t="1539331747543" class="icon" style="" viewBox="0 0 1026 1024" version="1.1" xmlns="http://www.w3.org/2000/svg" p-id="2541" xmlns:xlink="http://www.w3.org/1999/xlink" width="32.0625" height="32"><defs><style type="text/css"></style></defs><path d="M506.368067 16.46242c-0.023181 0-0.045354 0-0.067527 0s-0.045354 0-0.068535 0c-160.926351 0-304.236281 75.4284-396.503033 192.859454C42.327185 295.05768 2.124573 403.187175 2.124573 520.704905c0 278.485404 225.757082 504.242485 504.242485 504.242485s504.242485-225.757082 504.242485-504.242485S784.85347 16.46242 506.368067 16.46242zM753.818372 756.541616l0 62.851289L596.401397 819.392905 596.401397 564.388673 407.27204 564.388673l0 170.386145-74.124227 84.619095-83.292749 0 0-62.851289 54.793432 0 39.771247-45.40318L344.419743 564.388673l-69.376188 0 38.804707-208.716149-63.993197 0 0-62.852297 220.554497 0 0-70.802313 62.852297 0 0 70.802313 220.555505 0 0 62.852297L377.777963 355.672524 350.65841 501.536376l335.63824 0-10.67326-53.660595 61.644878-12.260643 25.611792 128.773534L659.253694 564.388673l0 192.152943L753.818372 756.541616z" p-id="2542"></path></svg>