<?xml version="1.0" standalone="no"?><!DOCTYPE svg PUBLIC "-//W3C//DTD SVG 1.1//EN" "http://www.w3.org/Graphics/SVG/1.1/DTD/svg11.dtd"><svg t="1539055421160" class="icon" style="" viewBox="0 0 1024 1024" version="1.1" xmlns="http://www.w3.org/2000/svg" p-id="11906" xmlns:xlink="http://www.w3.org/1999/xlink" width="32" height="32"><defs><style type="text/css"></style></defs><path d="M867.68 384.193c-22.063 0-20.725 2.37-20.725-18.967 0-39.71 0.668-34.968 0-74.68-2.006-79.42-35.436-147.579-98.953-202.7C643.03-3.428 490.589-22.987 362.887 39.84c-109.651 53.935-167.82 139.875-172.5 253.672-1.336 36.747 0 30.227 0 66.973 0 26.671 3.344 22.523-25.406 23.116-45.465 0.593-77.558 29.041-77.558 69.937 0 161.805 0.669 323.61-0.668 486.007 0 42.08 39.447 72.309 79.564 71.716 115.667-1.185 232.005-0.593 347.672-0.593h349.68c48.14 0 78.895-27.857 78.895-71.123V458.871c0-6.52 0-13.632-1.337-20.152-6.687-32.004-36.775-54.526-73.548-54.526z m-613.106-82.978c0.668-100.166 66.86-187.884 168.487-223.445 159.796-55.713 338.312 39.71 358.37 193.217 6.687 49.786 2.007 55.713 2.676 106.092 0 8.297-6.687 7.113-12.035 7.113H271.288c-16.714 0-16.714 0-16.714-14.817v-68.16z m619.125 624.697c0 11.854-10.698 21.93-24.07 21.93H179.69c-13.373 0-24.07-10.076-24.07-21.93v-453.41c0-11.853 10.699-21.929 24.07-21.929h669.938c13.372 0 24.07 10.077 24.07 21.93v453.41z" p-id="11907" fill="#bfcbd9"></path><path d="M528.292 522.882c-39.118-3.556-75.273 18.374-88.903 53.935-14.225 36.747-2.964 79.42 27.264 101.35 10.668 7.706 14.816 17.188 14.816 29.042v64.603c1.185 20.744-2.37 45.044 1.778 69.345 2.964 16.595 17.188 28.448 34.377 29.041 16.595 0.593 29.634-10.076 33.783-27.264 1.185-5.334 1.778-10.668 1.778-15.41V713.728c0-14.225 4.148-25.486 16.596-34.376 28.448-20.745 39.118-50.971 32.597-86.534-6.52-37.336-38.525-66.971-74.086-69.935z" p-id="11908" fill="#bfcbd9"></path></svg>