<?xml version="1.0" standalone="no"?><!DOCTYPE svg PUBLIC "-//W3C//DTD SVG 1.1//EN" "http://www.w3.org/Graphics/SVG/1.1/DTD/svg11.dtd"><svg t="1539054165400" class="icon" style="" viewBox="0 0 1024 1024" version="1.1" xmlns="http://www.w3.org/2000/svg" p-id="5718" xmlns:xlink="http://www.w3.org/1999/xlink" width="32" height="32"><defs><style type="text/css"></style></defs><path d="M886.784 1024H137.216c-34.816 0-63.488-28.672-63.488-65.536v-737.28C73.728 184.32 102.4 155.648 137.216 155.648h98.304v38.912H137.216c-14.336 0-24.576 12.288-24.576 26.624v737.28c0 14.336 10.24 26.624 24.576 26.624h749.568c14.336 0 24.576-12.288 24.576-26.624v-737.28c0-8.192-2.048-14.336-8.192-18.432-4.096-4.096-10.24-6.144-18.432-8.192-47.104-6.144-401.408-2.048-518.144 0h-43.008V155.648h43.008c202.752-2.048 477.184-4.096 522.24 0 18.432 2.048 32.768 8.192 43.008 18.432 12.288 12.288 18.432 28.672 18.432 47.104v737.28c0 34.816-28.672 65.536-63.488 65.536z" p-id="5719" fill="#bfcbd9"></path><path d="M143.36 700.416h739.328v38.912H143.36zM702.464 428.032h-38.912V210.944c0-94.208-73.728-172.032-163.84-172.032s-163.84 77.824-163.84 172.032v217.088h-38.912V210.944C296.96 94.208 389.12 0 499.712 0c112.64 0 202.752 94.208 202.752 210.944v217.088z" p-id="5720" fill="#bfcbd9"></path></svg>