<?xml version="1.0" encoding="utf-8"?>
<!-- Svg Vector Icons : http://www.sfont.cn -->
<!DOCTYPE svg PUBLIC "-//W3C//DTD SVG 1.1//EN" "http://www.w3.org/Graphics/SVG/1.1/DTD/svg11.dtd">
<svg version="1.1" xmlns="http://www.w3.org/2000/svg" xmlns:xlink="http://www.w3.org/1999/xlink" x="0px" y="0px" viewBox="0 0 1000 1000" enable-background="new 0 0 1000 1000" xml:space="preserve">
<metadata> Svg Vector Icons : http://www.sfont.cn </metadata>
<g><path d="M824.6,954.1H142.8c-40.6,0-73.6-33-73.6-73.6V671.1c0-15.6,12.7-28.3,28.3-28.3s28.3,12.7,28.3,28.3v209.4c0,9.4,7.6,17,17,17h681.7c9.4,0,17-7.6,17-17V671.1c0-15.6,12.7-28.3,28.3-28.3c15.6,0,28.3,12.7,28.3,28.3v209.4C898.2,921.1,865.1,954.1,824.6,954.1z"/><path d="M787.2,358.4H209.6c-15.6,0-28.3-12.7-28.3-28.3c0-15.6,12.7-28.3,28.3-28.3h577.6c15.6,0,28.3,12.7,28.3,28.3C815.5,345.8,802.8,358.4,787.2,358.4z"/><path d="M510.3,580.6c-58.6,0-113.5-32.8-161.5-67.2C291.1,553,237,573,187.9,573c-42.9,0-81.1-14.8-113.7-43.9c-27.4-24.5-44.4-53.6-53.8-73.7c-10.3-22.1-13.4-61-7-88.6c1.4-6.2,11.2-38.6,21.1-63.2c18.7-46.3,63.2-135.2,95.7-197.3c26.2-50,58.3-60.5,80.6-60.5h582.1c22.2,0,53.7,10.7,77.7,61.5c9.1,19.2,22.8,47.1,37.3,76.6c27.5,55.9,58.7,119.2,73.4,154c7.6,18.1,8.2,37.5,8.5,46.8c0,1,0,1.9,0.1,2.5c0.3,5.2,1.3,32.6-11,57.1c-21.9,43.5-45.8,75-73.3,96.4c-27.2,21.2-57.6,32-90.5,32c0,0,0,0,0,0c-47.2,0-97.9-21-162.1-67.6c-19.3,22.3-39.4,39.8-60,52.1C566.7,572.8,539,580.6,510.3,580.6z M348.9,450.2c5.9,0,11.8,1.9,16.9,5.6c44.6,33,96.2,68.3,144.5,68.3c40.1,0,77.7-24.5,114.9-74.8c4.5-6.1,11.4-10.2,18.9-11.2c7.6-1,15.2,1,21.2,5.7c63.6,49.5,111.2,72.5,149.7,72.5c0,0,0,0,0,0c43.3,0,80.3-31.8,113.2-97.2c4.4-8.8,5.5-22,5.1-28.2c-0.1-1.1-0.1-2.5-0.2-4.3c-0.2-5.9-0.6-18.2-4.1-26.5c-14.1-33.3-44.9-95.8-72-151c-14.6-29.7-28.4-57.8-37.7-77.4c-5.1-10.9-15.4-29.1-26.5-29.1H210.8c-12.7,0-24.5,18.9-30.4,30.1c-31.9,60.9-75.5,147.8-93.4,192.2c-8.7,21.6-17.4,50.3-18.5,54.8c-3.9,17.1-0.8,43.2,3.2,51.8c11.9,25.6,47.2,85,116.2,85c41.5,0,90-20.4,144.2-60.6C337,452,343,450.2,348.9,450.2z"/></g>
</svg>