<?xml version="1.0" standalone="no"?><!DOCTYPE svg PUBLIC "-//W3C//DTD SVG 1.1//EN" "http://www.w3.org/Graphics/SVG/1.1/DTD/svg11.dtd"><svg t="1539055333559" class="icon" style="" viewBox="0 0 1024 1024" version="1.1" xmlns="http://www.w3.org/2000/svg" p-id="11163" xmlns:xlink="http://www.w3.org/1999/xlink" width="32" height="32"><defs><style type="text/css"></style></defs><path d="M509.184 715.904c112.864 0 201.04-91.712 201.04-204.576 0-112.88-91.696-204.576-201.04-204.576-112.88 0-201.056 91.696-201.056 204.576-0.016 112.864 91.696 204.576 201.056 204.576z m0-56.432c-81.152 0-148.144-67.024-148.144-148.144 0-81.136 67.008-148.128 148.144-148.128 81.104 0 148.144 67.008 148.144 148.128 0 81.104-67.04 148.144-148.144 148.144z" fill="#bfcbd9" p-id="11164"></path><path d="M220.96 875.12a504.512 504.512 0 0 0 124.4 74.624c46.176-42.672 106.608-67.536 167.008-67.536 64 0 120.848 24.864 167.056 67.536 46.208-17.792 88.832-42.672 124.368-74.624-14.208-60.432-3.536-124.384 24.88-181.264 31.968-53.312 81.728-95.952 142.16-113.712 3.536-24.896 7.136-49.728 7.136-74.656 0-24.864-3.616-49.744-7.136-74.608-60.416-17.776-110.192-60.416-142.16-113.744-32-53.312-39.072-120.816-24.88-181.248a503.2 503.2 0 0 0-124.368-74.656c-46.208 42.672-103.056 67.536-167.056 67.536-60.4 0-120.832-24.88-167.008-67.536-46.208 17.792-88.864 42.672-124.4 74.656 14.224 60.416 3.568 124.384-24.864 181.248-32 53.328-81.728 95.968-142.16 113.744-3.552 24.864-7.104 49.744-7.104 74.608 0 24.912 3.568 49.76 7.104 74.656 60.432 17.76 110.176 60.4 142.16 113.712 28.416 56.88 39.072 120.832 24.864 181.264m124.4 127.904c-60.432-21.296-117.296-53.28-167.04-99.472-7.104-7.136-10.672-17.776-7.104-24.912a185.552 185.552 0 0 0-17.776-156.352c-28.432-49.76-71.072-81.744-124.384-92.4-10.656-3.536-17.76-10.672-17.76-21.312-7.12-32-10.672-67.552-10.672-99.536 0-31.984 3.552-63.968 10.672-99.504 3.536-10.656 10.64-17.776 17.76-21.312 53.328-14.224 99.504-46.208 124.384-92.416 28.416-49.744 31.984-103.056 17.776-156.368-3.568-10.672 0-21.328 7.104-24.88 49.744-42.656 106.608-74.64 167.04-99.504 10.656-3.568 17.76 0 24.88 7.104 39.088 39.072 88.832 63.968 142.128 63.968 53.328 0 106.624-21.328 142.144-63.968 7.136-7.104 17.776-10.672 24.912-7.104 60.432 21.312 117.248 53.312 167.008 99.504 7.136 7.104 10.656 17.776 7.136 24.88a185.472 185.472 0 0 0 17.76 156.368c28.432 49.744 71.056 81.744 124.384 92.416 10.64 3.536 17.776 10.656 17.776 21.312 7.072 31.984 10.624 67.52 10.624 99.504 0 31.984-3.552 63.984-10.624 99.536-3.584 10.64-10.704 17.776-17.776 21.312-53.328 14.224-99.536 46.192-124.384 92.4-28.448 49.728-32 103.056-17.76 156.352 3.52 10.656 0 21.328-7.136 24.912-49.76 42.64-106.576 74.608-167.008 99.472-10.672 3.584-17.76 0-24.912-7.104-39.056-39.072-88.832-63.968-142.144-63.968-53.296 0-106.624 21.344-142.128 63.968-3.568 3.616-10.672 7.104-17.776 7.104h-7.104z" fill="#bfcbd9" p-id="11165"></path></svg>